<?xml version="1.0" encoding="UTF-8" standalone="no"?><!DOCTYPE svg PUBLIC "-//W3C//DTD SVG 1.1//EN" "http://www.w3.org/Graphics/SVG/1.1/DTD/svg11.dtd"><svg width="100%" height="100%" viewBox="0 0 1920 1080" version="1.1" xmlns="http://www.w3.org/2000/svg" xmlns:xlink="http://www.w3.org/1999/xlink" xml:space="preserve" xmlns:serif="http://www.serif.com/" style="fill-rule:evenodd;clip-rule:evenodd;stroke-linecap:round;stroke-linejoin:round;stroke-miterlimit:1.5;"><g><g><path d="M1476.66,25.245l47.79,20.055l7.033,76.33l40.118,-9.765l7.391,10.254l248.372,-102.669l-350.704,5.795Z" style="fill:url(#_Linear1);"/><path d="M1531.49,121.63l0,-68.646l295.881,-33.534l-302.914,25.85l7.033,76.33Z" style="fill:#d8aba7;"/></g><g><path d="M1476.03,25.245l47.79,20.055l7.023,76.325l0.199,-68.847l47.684,68.805l248.008,-102.133" style="fill:none;stroke:#522038;stroke-width:3.33px;"/><path d="M1476.03,25.245l313.271,-5.11" style="fill:none;stroke:#522038;stroke-width:3.33px;"/><path d="M1531.21,121.839l21.725,-5.832" style="fill:none;stroke:#522038;stroke-width:3.33px;"/><path d="M1826.73,19.45l-24.312,-0.275" style="fill:none;stroke:#522038;stroke-width:3.33px;"/><path d="M1523.82,45.3l151.457,-12.925" style="fill:none;stroke:#522038;stroke-width:3.33px;"/></g></g><g><path d="M1487.24,109.467c-0.332,-1.238 -1.142,-2.294 -2.253,-2.935c-1.11,-0.641 -2.43,-0.815 -3.668,-0.483c-12.474,3.343 -46.474,12.453 -58.948,15.795c-1.239,0.332 -2.295,1.142 -2.936,2.253c-0.641,1.11 -0.814,2.429 -0.483,3.668c0,0 0.001,0.001 0.001,0.001c0.332,1.239 1.142,2.295 2.252,2.936c1.11,0.641 2.43,0.814 3.668,0.483c12.474,-3.343 46.475,-12.453 58.949,-15.796c1.238,-0.331 2.294,-1.142 2.935,-2.252c0.641,-1.11 0.815,-2.43 0.483,-3.668c-0,-0.001 -0,-0.001 -0,-0.002Z" style="fill:url(#_Linear2);"/><path d="M1382.45,130.002c-0.083,-1.28 -0.672,-2.473 -1.636,-3.319c-0.964,-0.845 -2.224,-1.273 -3.503,-1.189c-12.887,0.845 -48.011,3.147 -60.898,3.992c-1.279,0.084 -2.473,0.672 -3.318,1.636c-0.845,0.964 -1.273,2.224 -1.189,3.504c-0,0 -0,0.001 -0,0.001c0.084,1.28 0.672,2.473 1.636,3.319c0.964,0.845 2.224,1.273 3.504,1.189c12.886,-0.845 48.01,-3.147 60.897,-3.992c1.279,-0.084 2.473,-0.672 3.318,-1.636c0.846,-0.964 1.273,-2.224 1.189,-3.504c0,-0 0,-0.001 0,-0.001Z" style="fill:url(#_Linear3);"/><path d="M1273.71,135.701c0,-1.282 -0.509,-2.512 -1.416,-3.418c-0.906,-0.907 -2.136,-1.416 -3.418,-1.416c-12.914,-0 -48.114,-0 -61.028,-0c-1.282,-0 -2.511,0.509 -3.418,1.416c-0.906,0.906 -1.416,2.136 -1.416,3.418c0,0.001 0,0.001 0,0.002c0,1.282 0.51,2.511 1.416,3.418c0.907,0.906 2.136,1.416 3.418,1.416c12.914,-0 48.114,-0 61.028,-0c1.282,-0 2.512,-0.51 3.418,-1.416c0.907,-0.907 1.416,-2.136 1.416,-3.418c0,-0.001 0,-0.001 0,-0.002Z" style="fill:url(#_Linear4);"/><path d="M1168.21,135.201c0,-1.282 -0.509,-2.512 -1.416,-3.418c-0.906,-0.907 -2.136,-1.416 -3.418,-1.416c-12.914,-0 -48.113,-0 -61.028,-0c-1.282,-0 -2.511,0.509 -3.418,1.416c-0.906,0.906 -1.416,2.136 -1.416,3.418c0,0.001 0,0.001 0,0.002c0,1.282 0.51,2.511 1.416,3.418c0.907,0.906 2.136,1.416 3.418,1.416c12.915,-0 48.114,-0 61.028,-0c1.282,-0 2.512,-0.51 3.418,-1.416c0.907,-0.907 1.416,-2.136 1.416,-3.418c0,-0.001 0,-0.001 0,-0.002Z" style="fill:url(#_Linear5);"/><path d="M1062.71,134.701c0,-1.282 -0.509,-2.512 -1.416,-3.418c-0.906,-0.907 -2.136,-1.416 -3.418,-1.416c-12.914,-0 -48.113,-0 -61.028,-0c-1.282,-0 -2.511,0.509 -3.418,1.416c-0.906,0.906 -1.416,2.136 -1.416,3.418c0,0.001 0,0.001 0,0.002c0,1.282 0.51,2.511 1.416,3.418c0.907,0.906 2.136,1.416 3.418,1.416c12.915,-0 48.114,-0 61.028,-0c1.282,-0 2.512,-0.51 3.418,-1.416c0.907,-0.907 1.416,-2.136 1.416,-3.418c0,-0.001 0,-0.001 0,-0.002Z" style="fill:url(#_Linear6);"/><path d="M957.21,134.201c0,-1.282 -0.509,-2.512 -1.416,-3.418c-0.906,-0.907 -2.136,-1.416 -3.418,-1.416c-12.914,-0 -48.113,-0 -61.028,-0c-1.282,-0 -2.511,0.509 -3.418,1.416c-0.906,0.906 -1.416,2.136 -1.416,3.418c0,0.001 0,0.001 0,0.002c0,1.282 0.51,2.511 1.416,3.418c0.907,0.906 2.136,1.416 3.418,1.416c12.915,-0 48.114,-0 61.028,-0c1.282,-0 2.512,-0.51 3.418,-1.416c0.907,-0.907 1.416,-2.136 1.416,-3.418c0,-0.001 0,-0.001 0,-0.002Z" style="fill:url(#_Linear7);"/><path d="M851.71,133.701c0,-1.282 -0.509,-2.512 -1.416,-3.418c-0.906,-0.907 -2.136,-1.416 -3.418,-1.416c-12.914,-0 -48.113,-0 -61.028,-0c-1.282,-0 -2.511,0.509 -3.418,1.416c-0.906,0.906 -1.416,2.136 -1.416,3.418c0,0.001 0,0.001 0,0.002c0,1.282 0.51,2.511 1.416,3.418c0.907,0.906 2.136,1.416 3.418,1.416c12.915,-0 48.114,-0 61.028,-0c1.282,-0 2.512,-0.51 3.418,-1.416c0.907,-0.907 1.416,-2.136 1.416,-3.418c0,-0.001 0,-0.001 0,-0.002Z" style="fill:url(#_Linear8);"/><path d="M746.21,133.201c0,-1.282 -0.509,-2.512 -1.416,-3.418c-0.906,-0.907 -2.136,-1.416 -3.418,-1.416c-12.914,-0 -48.113,-0 -61.028,-0c-1.282,-0 -2.511,0.509 -3.418,1.416c-0.906,0.906 -1.416,2.136 -1.416,3.418c0,0.001 0,0.001 0,0.002c0,1.282 0.51,2.511 1.416,3.418c0.907,0.906 2.136,1.416 3.418,1.416c12.915,-0 48.114,-0 61.028,-0c1.282,-0 2.512,-0.51 3.418,-1.416c0.907,-0.907 1.416,-2.136 1.416,-3.418c0,-0.001 0,-0.001 0,-0.002Z" style="fill:url(#_Linear9);"/><path d="M639.844,133.201c0,-1.282 -0.509,-2.512 -1.416,-3.418c-0.906,-0.907 -2.136,-1.416 -3.418,-1.416c-12.914,-0 -48.114,-0 -61.028,-0c-1.282,-0 -2.511,0.509 -3.418,1.416c-0.906,0.906 -1.416,2.136 -1.416,3.418c0,0.001 0,0.001 0,0.002c0,1.282 0.51,2.511 1.416,3.418c0.907,0.906 2.136,1.416 3.418,1.416c12.914,-0 48.114,-0 61.028,-0c1.282,-0 2.512,-0.51 3.418,-1.416c0.907,-0.907 1.416,-2.136 1.416,-3.418c0,-0.001 0,-0.001 0,-0.002Z" style="fill:url(#_Linear10);"/><path d="M81.749,424.883c-1.158,-0.552 -2.487,-0.621 -3.695,-0.193c-1.209,0.428 -2.198,1.318 -2.749,2.476c-5.559,11.657 -20.709,43.429 -26.267,55.086c-0.552,1.157 -0.621,2.486 -0.193,3.695c0.428,1.208 1.319,2.197 2.476,2.749c0,0 0.001,0 0.001,0.001c1.158,0.551 2.487,0.621 3.695,0.193c1.209,-0.428 2.197,-1.319 2.749,-2.476c5.559,-11.657 20.709,-43.43 26.267,-55.086c0.552,-1.158 0.621,-2.487 0.193,-3.695c-0.428,-1.209 -1.319,-2.198 -2.476,-2.749c-0,-0.001 -0.001,-0.001 -0.001,-0.001Z" style="fill:url(#_Linear11);"/><path d="M40.701,511.897c-0.851,-0.958 -2.049,-1.539 -3.328,-1.615c-1.28,-0.075 -2.538,0.361 -3.496,1.212c-9.654,8.578 -35.968,31.957 -45.623,40.534c-0.958,0.852 -1.539,2.049 -1.615,3.329c-0.075,1.28 0.361,2.537 1.212,3.496c0.001,0 0.001,0 0.001,0.001c0.852,0.958 2.049,1.539 3.329,1.615c1.28,0.075 2.537,-0.361 3.496,-1.212c9.654,-8.578 35.968,-31.957 45.622,-40.534c0.959,-0.852 1.54,-2.049 1.615,-3.329c0.076,-1.28 -0.36,-2.537 -1.212,-3.496c0,0 -0,-0 -0.001,-0.001Z" style="fill:url(#_Linear12);"/><path d="M535.21,132.201c0,-1.282 -0.509,-2.512 -1.416,-3.418c-0.906,-0.907 -2.136,-1.416 -3.418,-1.416c-12.914,-0 -48.113,-0 -61.028,-0c-1.282,-0 -2.511,0.509 -3.418,1.416c-0.906,0.906 -1.416,2.136 -1.416,3.418c0,0.001 0,0.001 0,0.002c0,1.282 0.51,2.511 1.416,3.418c0.907,0.906 2.136,1.416 3.418,1.416c12.915,-0 48.114,-0 61.028,-0c1.282,-0 2.512,-0.51 3.418,-1.416c0.907,-0.907 1.416,-2.136 1.416,-3.418c0,-0.001 0,-0.001 0,-0.002Z" style="fill:url(#_Linear13);"/><path d="M429.71,131.701c0,-1.282 -0.509,-2.512 -1.416,-3.418c-0.906,-0.907 -2.136,-1.416 -3.418,-1.416c-12.914,-0 -48.113,-0 -61.028,-0c-1.282,-0 -2.511,0.509 -3.418,1.416c-0.906,0.906 -1.416,2.136 -1.416,3.418c0,0.001 0,0.001 0,0.002c0,1.282 0.51,2.511 1.416,3.418c0.907,0.906 2.136,1.416 3.418,1.416c12.915,-0 48.114,-0 61.028,-0c1.282,-0 2.512,-0.51 3.418,-1.416c0.907,-0.907 1.416,-2.136 1.416,-3.418c0,-0.001 0,-0.001 0,-0.002Z" style="fill:url(#_Linear14);"/><path d="M151.416,240.947c-1.091,-0.674 -2.405,-0.887 -3.653,-0.592c-1.247,0.295 -2.327,1.074 -3,2.164c-6.786,10.988 -25.282,40.937 -32.067,51.925c-0.674,1.091 -0.887,2.404 -0.592,3.652c0.295,1.248 1.074,2.327 2.165,3.001c0,0 0.001,0 0.001,0.001c1.091,0.673 2.405,0.886 3.652,0.591c1.248,-0.295 2.327,-1.073 3.001,-2.164c6.786,-10.988 25.281,-40.937 32.067,-51.925c0.674,-1.09 0.886,-2.404 0.591,-3.652c-0.295,-1.248 -1.073,-2.327 -2.164,-3.001c-0.001,0 -0.001,-0 -0.001,-0Z" style="fill:url(#_Linear15);"/><path d="M331.281,137.34c-0.496,-1.183 -1.441,-2.12 -2.627,-2.605c-1.187,-0.486 -2.518,-0.48 -3.7,0.016c-11.91,4.993 -44.372,18.602 -56.282,23.596c-1.182,0.495 -2.119,1.44 -2.605,2.627c-0.485,1.186 -0.48,2.517 0.016,3.7c0,0 0,0.001 0.001,0.001c0.495,1.183 1.44,2.12 2.627,2.605c1.187,0.486 2.517,0.48 3.7,-0.016c11.91,-4.993 44.372,-18.603 56.282,-23.596c1.182,-0.495 2.119,-1.44 2.605,-2.627c0.485,-1.187 0.479,-2.517 -0.016,-3.7c-0.001,-0 -0.001,-0.001 -0.001,-0.001Z" style="fill:url(#_Linear16);"/><path d="M232.42,182.345c-0.659,-1.1 -1.728,-1.893 -2.972,-2.204c-1.243,-0.312 -2.56,-0.117 -3.659,0.543c-11.077,6.639 -41.269,24.735 -52.346,31.375c-1.099,0.659 -1.892,1.728 -2.204,2.971c-0.311,1.244 -0.116,2.561 0.543,3.66c0.001,0.001 0.001,0.001 0.001,0.002c0.659,1.099 1.728,1.892 2.972,2.204c1.243,0.311 2.56,0.116 3.66,-0.543c11.076,-6.64 41.268,-24.736 52.345,-31.375c1.099,-0.66 1.892,-1.729 2.204,-2.972c0.311,-1.244 0.116,-2.56 -0.543,-3.66c-0,-0 -0.001,-0.001 -0.001,-0.001Z" style="fill:url(#_Linear17);"/><path d="M105.424,331.611c-1.254,-0.264 -2.563,-0.02 -3.637,0.68c-1.074,0.7 -1.826,1.799 -2.09,3.053c-2.664,12.637 -9.923,47.079 -12.587,59.716c-0.264,1.255 -0.019,2.563 0.681,3.637c0.7,1.074 1.798,1.826 3.053,2.09c0,0 0.001,0 0.001,0c1.255,0.265 2.563,0.02 3.637,-0.68c1.074,-0.7 1.826,-1.798 2.09,-3.053c2.664,-12.636 9.923,-47.079 12.587,-59.716c0.264,-1.254 0.019,-2.562 -0.681,-3.636c-0.7,-1.074 -1.798,-1.826 -3.052,-2.091c-0.001,0 -0.001,0 -0.002,-0Z" style="fill:url(#_Linear18);"/></g><defs><linearGradient id="_Linear1" x1="0" y1="0" x2="1" y2="0" gradientUnits="userSpaceOnUse" gradientTransform="matrix(350.703,0,0,102.669,1476.67,70.7848)"><stop offset="0" style="stop-color:#ffe7ca;stop-opacity:1"/><stop offset="1" style="stop-color:#fff;stop-opacity:1"/></linearGradient><linearGradient id="_Linear2" x1="0" y1="0" x2="1" y2="0" gradientUnits="userSpaceOnUse" gradientTransform="matrix(1500.77,-450.506,450.506,1500.77,-13.369,558.434)"><stop offset="0" style="stop-color:#546f95;stop-opacity:0.08"/><stop offset="0.66" style="stop-color:#556ca4;stop-opacity:0.15"/><stop offset="0.84" style="stop-color:#5963cd;stop-opacity:0.35"/><stop offset="1" style="stop-color:#5e59ff;stop-opacity:0.58"/></linearGradient><linearGradient id="_Linear3" x1="0" y1="0" x2="1" y2="0" gradientUnits="userSpaceOnUse" gradientTransform="matrix(1500.77,-450.506,450.506,1500.77,-13.369,558.434)"><stop offset="0" style="stop-color:#546f95;stop-opacity:0.08"/><stop offset="0.66" style="stop-color:#556ca4;stop-opacity:0.15"/><stop offset="0.84" style="stop-color:#5963cd;stop-opacity:0.35"/><stop offset="1" style="stop-color:#5e59ff;stop-opacity:0.58"/></linearGradient><linearGradient id="_Linear4" x1="0" y1="0" x2="1" y2="0" gradientUnits="userSpaceOnUse" gradientTransform="matrix(1500.77,-450.506,450.506,1500.77,-13.369,558.434)"><stop offset="0" style="stop-color:#546f95;stop-opacity:0.08"/><stop offset="0.66" style="stop-color:#556ca4;stop-opacity:0.15"/><stop offset="0.84" style="stop-color:#5963cd;stop-opacity:0.35"/><stop offset="1" style="stop-color:#5e59ff;stop-opacity:0.58"/></linearGradient><linearGradient id="_Linear5" x1="0" y1="0" x2="1" y2="0" gradientUnits="userSpaceOnUse" gradientTransform="matrix(1500.77,-450.506,450.506,1500.77,-13.369,558.434)"><stop offset="0" style="stop-color:#546f95;stop-opacity:0.08"/><stop offset="0.66" style="stop-color:#556ca4;stop-opacity:0.15"/><stop offset="0.84" style="stop-color:#5963cd;stop-opacity:0.35"/><stop offset="1" style="stop-color:#5e59ff;stop-opacity:0.58"/></linearGradient><linearGradient id="_Linear6" x1="0" y1="0" x2="1" y2="0" gradientUnits="userSpaceOnUse" gradientTransform="matrix(1500.77,-450.506,450.506,1500.77,-13.369,558.434)"><stop offset="0" style="stop-color:#546f95;stop-opacity:0.08"/><stop offset="0.66" style="stop-color:#556ca4;stop-opacity:0.15"/><stop offset="0.84" style="stop-color:#5963cd;stop-opacity:0.35"/><stop offset="1" style="stop-color:#5e59ff;stop-opacity:0.58"/></linearGradient><linearGradient id="_Linear7" x1="0" y1="0" x2="1" y2="0" gradientUnits="userSpaceOnUse" gradientTransform="matrix(1500.77,-450.506,450.506,1500.77,-13.369,558.434)"><stop offset="0" style="stop-color:#546f95;stop-opacity:0.08"/><stop offset="0.66" style="stop-color:#556ca4;stop-opacity:0.15"/><stop offset="0.84" style="stop-color:#5963cd;stop-opacity:0.35"/><stop offset="1" style="stop-color:#5e59ff;stop-opacity:0.58"/></linearGradient><linearGradient id="_Linear8" x1="0" y1="0" x2="1" y2="0" gradientUnits="userSpaceOnUse" gradientTransform="matrix(1500.77,-450.506,450.506,1500.77,-13.369,558.434)"><stop offset="0" style="stop-color:#546f95;stop-opacity:0.08"/><stop offset="0.66" style="stop-color:#556ca4;stop-opacity:0.15"/><stop offset="0.84" style="stop-color:#5963cd;stop-opacity:0.35"/><stop offset="1" style="stop-color:#5e59ff;stop-opacity:0.58"/></linearGradient><linearGradient id="_Linear9" x1="0" y1="0" x2="1" y2="0" gradientUnits="userSpaceOnUse" gradientTransform="matrix(1500.77,-450.506,450.506,1500.77,-13.369,558.434)"><stop offset="0" style="stop-color:#546f95;stop-opacity:0.08"/><stop offset="0.66" style="stop-color:#556ca4;stop-opacity:0.15"/><stop offset="0.84" style="stop-color:#5963cd;stop-opacity:0.35"/><stop offset="1" style="stop-color:#5e59ff;stop-opacity:0.58"/></linearGradient><linearGradient id="_Linear10" x1="0" y1="0" x2="1" y2="0" gradientUnits="userSpaceOnUse" gradientTransform="matrix(1500.77,-450.506,450.506,1500.77,-13.369,558.434)"><stop offset="0" style="stop-color:#546f95;stop-opacity:0.08"/><stop offset="0.66" style="stop-color:#556ca4;stop-opacity:0.15"/><stop offset="0.84" style="stop-color:#5963cd;stop-opacity:0.35"/><stop offset="1" style="stop-color:#5e59ff;stop-opacity:0.58"/></linearGradient><linearGradient id="_Linear11" x1="0" y1="0" x2="1" y2="0" gradientUnits="userSpaceOnUse" gradientTransform="matrix(1500.77,-450.506,450.506,1500.77,-13.369,558.434)"><stop offset="0" style="stop-color:#546f95;stop-opacity:0.08"/><stop offset="0.66" style="stop-color:#556ca4;stop-opacity:0.15"/><stop offset="0.84" style="stop-color:#5963cd;stop-opacity:0.35"/><stop offset="1" style="stop-color:#5e59ff;stop-opacity:0.58"/></linearGradient><linearGradient id="_Linear12" x1="0" y1="0" x2="1" y2="0" gradientUnits="userSpaceOnUse" gradientTransform="matrix(1500.77,-450.506,450.506,1500.77,-13.369,558.434)"><stop offset="0" style="stop-color:#546f95;stop-opacity:0.08"/><stop offset="0.66" style="stop-color:#556ca4;stop-opacity:0.15"/><stop offset="0.84" style="stop-color:#5963cd;stop-opacity:0.35"/><stop offset="1" style="stop-color:#5e59ff;stop-opacity:0.58"/></linearGradient><linearGradient id="_Linear13" x1="0" y1="0" x2="1" y2="0" gradientUnits="userSpaceOnUse" gradientTransform="matrix(1500.77,-450.506,450.506,1500.77,-13.369,558.434)"><stop offset="0" style="stop-color:#546f95;stop-opacity:0.08"/><stop offset="0.66" style="stop-color:#556ca4;stop-opacity:0.15"/><stop offset="0.84" style="stop-color:#5963cd;stop-opacity:0.35"/><stop offset="1" style="stop-color:#5e59ff;stop-opacity:0.58"/></linearGradient><linearGradient id="_Linear14" x1="0" y1="0" x2="1" y2="0" gradientUnits="userSpaceOnUse" gradientTransform="matrix(1500.77,-450.506,450.506,1500.77,-13.369,558.434)"><stop offset="0" style="stop-color:#546f95;stop-opacity:0.08"/><stop offset="0.66" style="stop-color:#556ca4;stop-opacity:0.15"/><stop offset="0.84" style="stop-color:#5963cd;stop-opacity:0.35"/><stop offset="1" style="stop-color:#5e59ff;stop-opacity:0.58"/></linearGradient><linearGradient id="_Linear15" x1="0" y1="0" x2="1" y2="0" gradientUnits="userSpaceOnUse" gradientTransform="matrix(1500.77,-450.506,450.506,1500.77,-13.369,558.434)"><stop offset="0" style="stop-color:#546f95;stop-opacity:0.08"/><stop offset="0.66" style="stop-color:#556ca4;stop-opacity:0.15"/><stop offset="0.84" style="stop-color:#5963cd;stop-opacity:0.35"/><stop offset="1" style="stop-color:#5e59ff;stop-opacity:0.58"/></linearGradient><linearGradient id="_Linear16" x1="0" y1="0" x2="1" y2="0" gradientUnits="userSpaceOnUse" gradientTransform="matrix(1500.77,-450.506,450.506,1500.77,-13.369,558.434)"><stop offset="0" style="stop-color:#546f95;stop-opacity:0.08"/><stop offset="0.66" style="stop-color:#556ca4;stop-opacity:0.15"/><stop offset="0.84" style="stop-color:#5963cd;stop-opacity:0.35"/><stop offset="1" style="stop-color:#5e59ff;stop-opacity:0.58"/></linearGradient><linearGradient id="_Linear17" x1="0" y1="0" x2="1" y2="0" gradientUnits="userSpaceOnUse" gradientTransform="matrix(1500.77,-450.506,450.506,1500.77,-13.369,558.434)"><stop offset="0" style="stop-color:#546f95;stop-opacity:0.08"/><stop offset="0.66" style="stop-color:#556ca4;stop-opacity:0.15"/><stop offset="0.84" style="stop-color:#5963cd;stop-opacity:0.35"/><stop offset="1" style="stop-color:#5e59ff;stop-opacity:0.58"/></linearGradient><linearGradient id="_Linear18" x1="0" y1="0" x2="1" y2="0" gradientUnits="userSpaceOnUse" gradientTransform="matrix(1500.77,-450.506,450.506,1500.77,-13.369,558.434)"><stop offset="0" style="stop-color:#546f95;stop-opacity:0.08"/><stop offset="0.66" style="stop-color:#556ca4;stop-opacity:0.15"/><stop offset="0.84" style="stop-color:#5963cd;stop-opacity:0.35"/><stop offset="1" style="stop-color:#5e59ff;stop-opacity:0.58"/></linearGradient></defs></svg>