<?xml version="1.0" encoding="UTF-8" standalone="no"?><!DOCTYPE svg PUBLIC "-//W3C//DTD SVG 1.1//EN" "http://www.w3.org/Graphics/SVG/1.1/DTD/svg11.dtd"><svg width="100%" height="100%" viewBox="0 0 400 400" version="1.1" xmlns="http://www.w3.org/2000/svg" xmlns:xlink="http://www.w3.org/1999/xlink" xml:space="preserve" xmlns:serif="http://www.serif.com/" style="fill-rule:evenodd;clip-rule:evenodd;stroke-linejoin:round;stroke-miterlimit:2;"><rect x="-9.911" y="-8.981" width="423.38" height="408.981" style="fill:#fff;"/><g><g><path d="M84.044,373.623l-18.788,-18.788l6.263,-6.263l18.788,18.788l10.664,-10.665l-4.81,-4.81l6.263,-6.263l4.811,4.81l10.664,-10.664l-18.788,-18.788l6.264,-6.263l18.787,18.787l10.665,-10.664l-4.811,-4.811l6.264,-6.263l4.81,4.811l10.665,-10.665l-18.788,-18.788l6.263,-6.263l18.788,18.788l10.664,-10.665l-4.81,-4.81l6.263,-6.263l4.81,4.81l10.665,-10.664l-18.788,-18.788l6.263,-6.263l18.788,18.788l8.637,-8.638l-47.758,-47.758l-131.293,131.293c-2.392,2.392 -2.392,6.271 -0,8.663c11.763,11.763 43.427,43.427 43.427,43.427l19.158,-19.158Zm173.12,-173.12l-18.788,-18.788l6.263,-6.263l18.788,18.788l10.665,-10.665l-4.811,-4.81l6.263,-6.264l4.811,4.811l10.664,-10.665l-18.787,-18.787l6.263,-6.263l18.788,18.787l10.664,-10.664l-4.811,-4.811l6.264,-6.263l4.81,4.811l10.665,-10.665l-18.788,-18.788l6.263,-6.263l18.788,18.788l10.664,-10.665l-4.81,-4.81l6.263,-6.263l4.811,4.81l10.664,-10.664l-18.788,-18.788l6.264,-6.263l18.787,18.787l18.9,-18.899c0,-0 -31.664,-31.664 -43.427,-43.427c-2.392,-2.393 -6.27,-2.393 -8.662,-0l-131.294,131.293l47.759,47.758l8.895,-8.895Z" style="fill:url(#_Linear1);"/></g><g><path d="M344.661,305.791l-47.758,47.758c-0,0 21.288,21.288 34.437,34.437c5.592,5.592 14.659,5.592 20.251,0c8.101,-8.101 19.407,-19.406 27.508,-27.507c5.592,-5.592 5.592,-14.659 -0,-20.251c-13.149,-13.149 -34.438,-34.437 -34.438,-34.437Z" style="fill:url(#_Linear2);"/><path d="M351.015,312.144l-223.614,-223.614l-47.758,47.759l223.613,223.613l47.759,-47.758Z"/><path d="M65.621,42.437l-23.102,42.423l27.638,27.638l32.763,-32.762l-37.299,-37.299Z" style="fill:url(#_Linear3);"/><path d="M114.456,81.156l-11.812,-11.811l-42.356,42.356l11.812,11.811l-4.617,4.617l11.888,11.887l51.757,-51.757l-11.887,-11.888l-4.785,4.785Z" style="fill:#1a2a78;"/></g></g><defs><linearGradient id="_Linear1" x1="0" y1="0" x2="1" y2="0" gradientUnits="userSpaceOnUse" gradientTransform="matrix(-318.679,317.662,-317.662,-318.679,359.824,49.2957)"><stop offset="0" style="stop-color:#ff7c4e;stop-opacity:1"/><stop offset="1" style="stop-color:#ffba21;stop-opacity:1"/></linearGradient><linearGradient id="_Linear2" x1="0" y1="0" x2="1" y2="0" gradientUnits="userSpaceOnUse" gradientTransform="matrix(43.3333,41.3333,-41.3333,43.3333,323.333,328.333)"><stop offset="0" style="stop-color:#000;stop-opacity:1"/><stop offset="1" style="stop-color:#0059a6;stop-opacity:1"/></linearGradient><linearGradient id="_Linear3" x1="0" y1="0" x2="1" y2="0" gradientUnits="userSpaceOnUse" gradientTransform="matrix(26,37.3333,-37.3333,26,56,56.3333)"><stop offset="0" style="stop-color:#007dff;stop-opacity:1"/><stop offset="1" style="stop-color:#004b99;stop-opacity:1"/></linearGradient></defs></svg>