<?xml version="1.0" encoding="UTF-8" standalone="no"?><!DOCTYPE svg PUBLIC "-//W3C//DTD SVG 1.1//EN" "http://www.w3.org/Graphics/SVG/1.1/DTD/svg11.dtd"><svg width="100%" height="100%" viewBox="0 0 400 400" version="1.1" xmlns="http://www.w3.org/2000/svg" xmlns:xlink="http://www.w3.org/1999/xlink" xml:space="preserve" xmlns:serif="http://www.serif.com/" style="fill-rule:evenodd;clip-rule:evenodd;stroke-linecap:round;stroke-linejoin:round;stroke-miterlimit:1.5;"><g><g><path d="M88.895,373.12l-18.787,-18.788l6.263,-6.263l18.788,18.788l10.664,-10.665l-4.811,-4.81l6.264,-6.263l4.81,4.81l10.665,-10.664l-18.788,-18.788l6.263,-6.263l18.788,18.788l10.664,-10.665l-4.81,-4.81l6.263,-6.264l4.811,4.811l10.664,-10.665l-18.788,-18.787l6.264,-6.264l18.787,18.788l10.665,-10.664l-4.811,-4.811l6.263,-6.263l4.811,4.81l10.664,-10.664l-18.787,-18.788l6.263,-6.263l18.788,18.788l8.637,-8.637l-47.758,-47.759l-131.294,131.293c-2.392,2.393 -2.392,6.271 0,8.663c11.763,11.763 43.427,43.427 43.427,43.427l19.158,-19.158Zm173.12,-173.12l-18.787,-18.788l6.263,-6.263l18.788,18.788l10.664,-10.665l-4.81,-4.81l6.263,-6.263l4.81,4.81l10.665,-10.664l-18.788,-18.788l6.263,-6.263l18.788,18.787l10.665,-10.664l-4.811,-4.811l6.263,-6.263l4.811,4.811l10.664,-10.665l-18.787,-18.787l6.263,-6.264l18.787,18.788l10.665,-10.664l-4.811,-4.811l6.264,-6.263l4.81,4.81l10.665,-10.664l-18.788,-18.788l6.263,-6.263l18.788,18.788l18.9,-18.9c-0,-0 -31.664,-31.664 -43.427,-43.427c-2.393,-2.392 -6.271,-2.392 -8.663,-0l-131.293,131.293l47.758,47.758l8.895,-8.895Z" style="fill:#fff;"/></g><g><g><path d="M132.67,84.446l-11.888,-11.888l-51.757,51.758l11.887,11.887l51.758,-51.757Z" style="fill:none;stroke:#fff;stroke-width:7.88px;"/><path d="M117.268,78.614l-13.083,-13.082l-42.356,42.356l13.083,13.082l42.356,-42.356Z" style="fill:none;stroke:#fff;stroke-width:7.88px;"/><path d="M355.866,311.641l-47.758,47.758c-0,0 10.895,10.896 21.911,21.912c12.51,12.51 32.793,12.51 45.303,-0c0.818,-0.818 1.637,-1.638 2.455,-2.456c12.51,-12.51 12.51,-32.793 0,-45.303c-11.016,-11.016 -21.911,-21.911 -21.911,-21.911Z" style="fill:none;stroke:#fff;stroke-width:7.88px;"/><path d="M355.866,311.641l-223.614,-223.614l-47.758,47.759l223.614,223.613l47.758,-47.758Z" style="fill:none;stroke:#fff;stroke-width:7.88px;"/><path d="M331.987,335.52l-223.614,-223.613l-23.879,23.879l223.614,223.613l23.879,-23.879Z" style="fill:#fff;stroke:#fff;stroke-width:7.88px;"/></g><path d="M26.88,32.754l35.014,35.014l2.171,-2.171l-35.014,-35.014l65.623,25.437l3.551,13.924l-31.911,31.911l-13.996,-3.479l-25.438,-65.622Z" style="fill:#fff;"/></g></g></svg>