<?xml version="1.0" encoding="UTF-8" standalone="no"?><!DOCTYPE svg PUBLIC "-//W3C//DTD SVG 1.1//EN" "http://www.w3.org/Graphics/SVG/1.1/DTD/svg11.dtd"><svg width="100%" height="100%" viewBox="0 0 1920 1080" version="1.1" xmlns="http://www.w3.org/2000/svg" xmlns:xlink="http://www.w3.org/1999/xlink" xml:space="preserve" xmlns:serif="http://www.serif.com/" style="fill-rule:evenodd;clip-rule:evenodd;stroke-linejoin:round;stroke-miterlimit:2;"><path d="M230,280c85.547,0 155,69.453 155,155c0,85.547 -69.453,155 -155,155c-85.547,0 -155,-69.453 -155,-155c0,-85.547 69.453,-155 155,-155Zm0,40c63.47,0 115,51.53 115,115c0,63.47 -51.53,115 -115,115c-63.47,0 -115,-51.53 -115,-115c0,-63.47 51.53,-115 115,-115Z" style="fill:#ffaa49;fill-opacity:0.6;"/><path d="M1125,170c19.317,-0 35,15.683 35,35c0,19.317 -15.683,35 -35,35c-19.317,0 -35,-15.683 -35,-35c-0,-19.317 15.683,-35 35,-35Zm0,9.032c14.332,0 25.968,11.636 25.968,25.968c-0,14.332 -11.636,25.968 -25.968,25.968c-14.332,-0 -25.968,-11.636 -25.968,-25.968c0,-14.332 11.636,-25.968 25.968,-25.968Z" style="fill:#ff6d86;"/><path d="M1560,350c24.836,0 45,20.164 45,45c-0,24.836 -20.164,45 -45,45c-24.836,-0 -45,-20.164 -45,-45c0,-24.836 20.164,-45 45,-45Zm0,11.613c18.427,-0 33.387,14.96 33.387,33.387c0,18.427 -14.96,33.387 -33.387,33.387c-18.427,0 -33.387,-14.96 -33.387,-33.387c-0,-18.427 14.96,-33.387 33.387,-33.387Z" style="fill:#8089ff;"/><path d="M890,860c33.115,0 60,26.885 60,60c0,33.115 -26.885,60 -60,60c-33.115,0 -60,-26.885 -60,-60c0,-33.115 26.885,-60 60,-60Zm0,15.484c24.569,-0 44.516,19.947 44.516,44.516c0,24.569 -19.947,44.516 -44.516,44.516c-24.569,0 -44.516,-19.947 -44.516,-44.516c-0,-24.569 19.947,-44.516 44.516,-44.516Z" style="fill:#00dbc5;"/><path d="M1372.25,780.961c-82.632,22.141 -167.694,-26.97 -189.835,-109.601c-22.142,-82.632 26.969,-167.695 109.601,-189.836c82.632,-22.141 167.694,26.97 189.836,109.602c22.141,82.632 -26.97,167.694 -109.602,189.835Zm-10.353,-38.637c-61.307,16.427 -124.418,-20.01 -140.845,-81.317c-16.428,-61.308 20.009,-124.419 81.317,-140.846c61.307,-16.427 124.418,20.01 140.846,81.317c16.427,61.308 -20.01,124.419 -81.318,140.846Z" style="fill:#fff8a6;fill-opacity:0.85;"/><path d="M134.065,113.807c-18.658,5 -37.866,-6.09 -42.866,-24.748c-4.999,-18.659 6.09,-37.867 24.749,-42.866c18.659,-5 37.867,6.09 42.866,24.748c5,18.659 -6.09,37.867 -24.749,42.866Zm-2.337,-8.724c-13.844,3.709 -28.095,-4.518 -31.804,-18.362c-3.71,-13.844 4.518,-28.095 18.362,-31.804c13.843,-3.709 28.094,4.518 31.804,18.362c3.709,13.844 -4.519,28.095 -18.362,31.804Z" style="fill:#00ada1;"/><path d="M31.647,1103.47c-23.99,6.428 -48.686,-7.83 -55.114,-31.82c-6.428,-23.99 7.83,-48.686 31.82,-55.114c23.99,-6.428 48.686,7.83 55.114,31.82c6.428,23.99 -7.83,48.686 -31.82,55.114Zm-3.006,-11.218c-17.799,4.77 -36.121,-5.809 -40.89,-23.608c-4.77,-17.799 5.809,-36.121 23.608,-40.89c17.799,-4.77 36.121,5.809 40.89,23.608c4.77,17.799 -5.809,36.121 -23.608,40.89Z" style="fill:#cd80ff;"/><path d="M1921.65,98.475c-23.99,6.428 -48.686,-7.83 -55.114,-31.82c-6.428,-23.989 7.83,-48.685 31.82,-55.113c23.99,-6.428 48.686,7.83 55.114,31.82c6.428,23.99 -7.83,48.685 -31.82,55.113Zm-3.006,-11.217c-17.799,4.769 -36.121,-5.809 -40.89,-23.608c-4.77,-17.799 5.809,-36.122 23.608,-40.891c17.799,-4.769 36.121,5.809 40.89,23.608c4.77,17.799 -5.809,36.122 -23.608,40.891Z" style="fill:#ffca80;"/><path d="M1835.54,1067.94c-31.987,8.571 -64.914,-10.44 -73.485,-42.426c-8.571,-31.987 10.44,-64.914 42.426,-73.485c31.987,-8.571 64.914,10.44 73.485,42.426c8.571,31.987 -10.44,64.914 -42.426,73.485Zm-4.008,-14.956c-23.732,6.359 -48.162,-7.746 -54.521,-31.478c-6.359,-23.732 7.746,-48.162 31.478,-54.521c23.732,-6.359 48.162,7.746 54.521,31.478c6.359,23.732 -7.746,48.162 -31.478,54.521Z" style="fill:#ffb6cd;"/></svg>